<?xml version="1.0" encoding="UTF-8"?>
<svg version="1.1" xmlns="http://www.w3.org/2000/svg" width="528" height="590">
<path d="M0 0 C1.00514648 0.08878418 2.01029297 0.17756836 3.04589844 0.26904297 C9.36215831 0.84927414 15.55703252 1.68448757 21.80859375 2.75 C26.41289894 3.36305589 30.99093766 3.29216057 35.625 3.125 C35.625 4.115 35.625 5.105 35.625 6.125 C36.60509033 6.27412842 36.60509033 6.27412842 37.60498047 6.42626953 C44.91871685 7.63509815 51.75621806 9.5621797 58.75 12 C59.86947021 12.39002197 60.98894043 12.78004395 62.14233398 13.18188477 C98.16226302 26.11334448 132.1828415 47.34085226 158.625 75.125 C159.43066406 75.92421875 160.23632812 76.7234375 161.06640625 77.546875 C163.73254584 80.2333668 166.27791677 83.00183508 168.8125 85.8125 C172.15687481 89.52764235 172.15687481 89.52764235 175.625 93.125 C176.52095828 94.42328349 177.39276202 95.73833072 178.25 97.0625 C180.56471359 100.58513452 182.98456482 103.99302711 185.5 107.375 C193.48054271 118.31410893 199.91823671 129.87917931 205.625 142.125 C205.96031738 142.84397461 206.29563477 143.56294922 206.64111328 144.30371094 C215.50800051 163.61797512 221.2507747 184.16257034 224.625 205.125 C224.74214355 205.83736816 224.85928711 206.54973633 224.97998047 207.28369141 C229.89874401 238.87925575 226.9914648 272.16457332 219.03637695 302.93457031 C218.53455583 305.1880767 218.53455583 305.1880767 218.68823242 307.77636719 C218.625 310.125 218.625 310.125 216.625 312.125 C215.693698 314.61638115 214.83171309 317.1006581 214 319.625 C207.19924433 339.50053764 198.03373274 358.16395111 185.625 375.125 C185.08488281 375.90488281 184.54476563 376.68476563 183.98828125 377.48828125 C183.53839844 378.02839844 183.08851563 378.56851562 182.625 379.125 C181.965 379.125 181.305 379.125 180.625 379.125 C180.39296875 379.71023438 180.1609375 380.29546875 179.921875 380.8984375 C178.30320991 383.67747094 176.51785325 384.93203731 173.875 386.75 C172.61429687 387.63558594 172.61429687 387.63558594 171.328125 388.5390625 C163.63891927 393.0503595 155.30323736 393.25007629 146.6875 391.54296875 C134.95972688 387.89469842 126.67536272 377.32733026 118.234375 368.8671875 C117.27669524 367.91018411 116.31886732 366.95332897 115.36090088 365.99661255 C113.37276573 364.00993657 111.38641156 362.02150236 109.40136719 360.03173828 C106.87446743 357.49911879 104.34307071 354.97104907 101.81032944 352.44427299 C99.83867478 350.47625249 97.86943323 348.50583116 95.90088654 346.5347023 C94.52085965 345.15369799 93.13884376 343.77468219 91.7567749 342.39572144 C88.10877004 338.73415924 84.52063913 335.08573994 81.19628906 331.12548828 C78.78194828 328.03401917 78.78194828 328.03401917 75.625 326.125 C75.625 325.465 75.625 324.805 75.625 324.125 C74.965 324.125 74.305 324.125 73.625 324.125 C73.625 323.465 73.625 322.805 73.625 322.125 C72.965 322.125 72.305 322.125 71.625 322.125 C66.85755814 317.82267442 66.85755814 317.82267442 65.625 314.125 C64.965 314.125 64.305 314.125 63.625 314.125 C63.625 313.465 63.625 312.805 63.625 312.125 C62.985625 311.856875 62.34625 311.58875 61.6875 311.3125 C59.625 310.125 59.625 310.125 58.625 307.125 C57.635 306.795 56.645 306.465 55.625 306.125 C54.26672029 304.47860035 52.93245749 302.81204193 51.625 301.125 C50.965 300.795 50.305 300.465 49.625 300.125 C49.625 299.465 49.625 298.805 49.625 298.125 C48.965 298.125 48.305 298.125 47.625 298.125 C46.27113064 296.47497172 44.93821858 294.8075613 43.625 293.125 C42.965 292.795 42.305 292.465 41.625 292.125 C41.625 291.465 41.625 290.805 41.625 290.125 C40.635 289.795 39.645 289.465 38.625 289.125 C36.93411778 287.14543058 35.26669528 285.14554804 33.625 283.125 C32.965 282.795 32.305 282.465 31.625 282.125 C31.625 281.465 31.625 280.805 31.625 280.125 C30.635 279.795 29.645 279.465 28.625 279.125 C28.625 278.465 28.625 277.805 28.625 277.125 C27.635 276.795 26.645 276.465 25.625 276.125 C25.625 275.465 25.625 274.805 25.625 274.125 C24.965 274.125 24.305 274.125 23.625 274.125 C23.625 273.465 23.625 272.805 23.625 272.125 C22.635 271.795 21.645 271.465 20.625 271.125 C18.9375 269.6875 18.9375 269.6875 17.625 268.125 C17.625 267.465 17.625 266.805 17.625 266.125 C16.305 265.465 14.985 264.805 13.625 264.125 C13.625 263.465 13.625 262.805 13.625 262.125 C12.965 262.125 12.305 262.125 11.625 262.125 C9.5 260.25 9.5 260.25 7.625 258.125 C7.625 257.465 7.625 256.805 7.625 256.125 C6.635 255.795 5.645 255.465 4.625 255.125 C2.9375 253.6875 2.9375 253.6875 1.625 252.125 C1.625 251.465 1.625 250.805 1.625 250.125 C0.985625 249.856875 0.34625 249.58875 -0.3125 249.3125 C-2.375 248.125 -2.375 248.125 -3.375 245.125 C-6.22046318 243.35775045 -9.3093383 242.41374724 -12.5 241.4375 C-13.36882812 241.16550781 -14.23765625 240.89351562 -15.1328125 240.61328125 C-17.39706411 239.87466078 -17.39706411 239.87466078 -19.375 241.125 C-20.4475 241.228125 -21.52 241.33125 -22.625 241.4375 C-29.28739276 242.65893867 -33.58095902 247.03821507 -38.20819092 251.73114014 C-38.7631859 252.2858374 -39.31818089 252.84053467 -39.88999391 253.41204095 C-41.73711513 255.26054437 -43.57699988 257.11608217 -45.41699219 258.97167969 C-46.74421869 260.30274673 -48.0719029 261.63335751 -49.40000916 262.96354675 C-52.25278651 265.8226346 -55.10242974 268.6847971 -57.9496994 271.54936981 C-62.44830388 276.07503754 -66.95454375 280.59305019 -71.4619751 285.10992432 C-81.02224714 294.69237888 -90.57403242 304.28327289 -100.125 313.875 C-110.44959429 324.24360906 -120.77562022 334.61076756 -131.11139607 344.96823239 C-135.59618173 349.46300888 -140.07604006 353.96262331 -144.55224657 358.46594286 C-147.32983748 361.25839682 -150.1115157 364.04675097 -152.89435005 366.83397865 C-154.18855391 368.13194286 -155.48101972 369.43164262 -156.77165794 370.73315239 C-158.52648153 372.50229672 -160.28726964 374.26527662 -162.04974365 376.02679443 C-162.56510327 376.54934397 -163.08046289 377.07189352 -163.61143947 377.61027789 C-167.14681375 381.125 -167.14681375 381.125 -169.375 381.125 C-169.375 381.785 -169.375 382.445 -169.375 383.125 C-177.20426048 389.49847962 -184.82231542 392.81072265 -194.96484375 392.53125 C-204.9234657 391.34488496 -212.68011007 386.41101984 -219.375 379.125 C-220.36257754 377.81318021 -221.32465732 376.48143705 -222.25 375.125 C-223.301875 373.64 -223.301875 373.64 -224.375 372.125 C-225.365 372.125 -226.355 372.125 -227.375 372.125 C-227.375 370.805 -227.375 369.485 -227.375 368.125 C-228.30309554 365.9747631 -228.30309554 365.9747631 -229.640625 363.82421875 C-230.35798828 362.60508789 -230.35798828 362.60508789 -231.08984375 361.36132812 C-231.84974609 360.0996582 -231.84974609 360.0996582 -232.625 358.8125 C-233.60945141 357.14978482 -234.59382762 355.48702512 -235.578125 353.82421875 C-236.89975316 351.59860141 -238.22238334 349.37476465 -239.57202148 347.16601562 C-242.26705854 342.66213348 -243.45290481 338.45927246 -244.56640625 333.3828125 C-244.83324219 332.63773437 -245.10007812 331.89265625 -245.375 331.125 C-246.365 330.795 -247.355 330.465 -248.375 330.125 C-248.375 328.805 -248.375 327.485 -248.375 326.125 C-249.14955976 323.00526565 -250.22161147 319.98200836 -251.25 316.9375 C-251.65412109 315.68936523 -251.65412109 315.68936523 -252.06640625 314.41601562 C-252.46279297 313.22975586 -252.46279297 313.22975586 -252.8671875 312.01953125 C-253.10808105 311.29612549 -253.34897461 310.57271973 -253.59716797 309.82739258 C-254.25086521 307.92553476 -254.25086521 307.92553476 -256.375 307.125 C-256.32601563 306.20332031 -256.27703125 305.28164063 -256.2265625 304.33203125 C-256.22922371 299.01627192 -257.59987524 293.97518387 -258.75 288.8125 C-268.21432458 243.45234339 -264.17558679 193.65126433 -245.375 151.125 C-244.42044409 148.94964122 -243.46694613 146.77382109 -242.51367188 144.59790039 C-241.89658172 143.19630112 -241.27447715 141.7968948 -240.64648438 140.40014648 C-238.99910315 136.71664213 -238.99910315 136.71664213 -237.86328125 132.85546875 C-237.375 131.125 -237.375 131.125 -236.00439453 129.76586914 C-234.25777665 128.00695113 -233.09795853 126.25940561 -231.81640625 124.140625 C-231.34783203 123.36976562 -230.87925781 122.59890625 -230.39648438 121.8046875 C-229.67428711 120.60199219 -229.67428711 120.60199219 -228.9375 119.375 C-228.45990234 118.58867188 -227.98230469 117.80234375 -227.49023438 116.9921875 C-226.10795149 114.70924018 -224.73860572 112.41914366 -223.375 110.125 C-222.96620605 109.44244141 -222.55741211 108.75988281 -222.13623047 108.05664062 C-220.06279128 104.8112802 -220.06279128 104.8112802 -219.375 101.125 C-218.80394531 100.91101563 -218.23289063 100.69703125 -217.64453125 100.4765625 C-214.58687854 98.655654 -213.13793715 96.38912322 -211.0625 93.5 C-192.76984755 68.83555283 -167.93975301 48.28997466 -141.03515625 33.6484375 C-138.32720093 32.25200252 -138.32720093 32.25200252 -136.375 30.125 C-133.68046058 28.60121366 -130.8608534 27.32149123 -128.0625 26 C-127.23250488 25.60546631 -126.40250977 25.21093262 -125.54736328 24.80444336 C-118.16743488 21.36327168 -110.62947294 18.43857873 -102.9675293 15.68896484 C-102.119729 15.38039551 -101.27192871 15.07182617 -100.3984375 14.75390625 C-99.64481934 14.48650635 -98.89120117 14.21910645 -98.11474609 13.94360352 C-96.18109709 13.25295201 -96.18109709 13.25295201 -95.375 11.125 C-93.50834187 10.88606776 -91.64029352 10.6552822 -89.76806641 10.46484375 C-85.40429712 9.84513687 -81.25950382 8.43830599 -77.0625 7.125 C-75.72348633 6.71507812 -75.72348633 6.71507812 -74.35742188 6.296875 C-71.01807981 5.27170452 -67.68898613 4.22966204 -64.375 3.125 C-60.51481976 2.51629459 -56.63036318 2.08554098 -52.75 1.625 C-51.62513184 1.4911792 -50.50026367 1.3573584 -49.34130859 1.21948242 C-32.85352097 -0.68639564 -16.55496359 -1.51898365 0 0 Z M29.625 4.125 C29.625 4.455 29.625 4.785 29.625 5.125 C31.275 5.125 32.925 5.125 34.625 5.125 C34.625 4.795 34.625 4.465 34.625 4.125 C32.975 4.125 31.325 4.125 29.625 4.125 Z " fill="#27AF7B" transform="translate(287.375,2.875)"/>
<path d="M0 0 C1.74015902 -0.00640819 1.74015902 -0.00640819 3.51547277 -0.01294583 C6.70850835 -0.01971809 9.90051003 -0.00424646 13.0934236 0.02094448 C16.5465842 0.04265484 19.99970168 0.03522164 23.45291138 0.03143311 C29.42678704 0.02881875 35.40038842 0.04442822 41.3741951 0.0726223 C50.01113386 0.11335868 58.64794079 0.12628984 67.2849652 0.13256226 C81.29986429 0.14348959 95.31461738 0.17672128 109.32943726 0.22407532 C122.93880486 0.27001141 136.54813272 0.30538346 150.15756226 0.32661438 C150.99726777 0.327928 151.83697329 0.32924161 152.70212443 0.33059504 C156.91492593 0.3371205 161.12772771 0.34343898 165.34052968 0.34965456 C200.25767193 0.40143892 235.17464461 0.48946153 270.09164429 0.60127258 C270.09164429 1.26127258 270.09164429 1.92127258 270.09164429 2.60127258 C271.31960052 3.73297571 272.60015686 4.80808264 273.90414429 5.85127258 C278.19014822 9.55316625 280.70276538 12.35733332 281.40023804 18.17549133 C281.68979454 24.60715537 280.80151371 28.36380987 277.09164429 33.60127258 C276.43164429 34.59127258 275.77164429 35.58127258 275.09164429 36.60127258 C274.43164429 36.60127258 273.77164429 36.60127258 273.09164429 36.60127258 C273.09164429 37.26127258 273.09164429 37.92127258 273.09164429 38.60127258 C272.43164429 38.60127258 271.77164429 38.60127258 271.09164429 38.60127258 C271.09164429 39.26127258 271.09164429 39.92127258 271.09164429 40.60127258 C270.43164429 40.60127258 269.77164429 40.60127258 269.09164429 40.60127258 C268.76164429 41.59127258 268.43164429 42.58127258 268.09164429 43.60127258 C266.15414429 45.78877258 266.15414429 45.78877258 264.09164429 47.60127258 C263.43164429 47.60127258 262.77164429 47.60127258 262.09164429 47.60127258 C261.71846069 48.46558899 261.71846069 48.46558899 261.33773804 49.34736633 C259.91386281 51.9228397 258.26736286 53.62138816 256.15414429 55.66377258 C255.11967163 56.67117493 255.11967163 56.67117493 254.06430054 57.69892883 C253.41332397 58.32670227 252.76234741 58.95447571 252.09164429 59.60127258 C251.28533569 60.46558899 251.28533569 60.46558899 250.46273804 61.34736633 C249.09164429 62.60127258 249.09164429 62.60127258 247.09164429 62.60127258 C247.09164429 63.26127258 247.09164429 63.92127258 247.09164429 64.60127258 C246.43164429 64.60127258 245.77164429 64.60127258 245.09164429 64.60127258 C244.78226929 65.43658508 244.78226929 65.43658508 244.46664429 66.28877258 C242.94692792 68.8446592 241.12486394 70.2856222 238.80648804 72.10517883 C236.16087123 74.41331377 234.0156388 77.11477227 231.80258179 79.83174133 C230.09164429 81.60127258 230.09164429 81.60127258 228.00570679 82.58955383 C225.94862839 83.43885442 225.94862839 83.43885442 225.17266083 85.44714546 C224.00102347 87.78185147 222.71874394 89.23089022 220.88131714 91.07902527 C219.88917206 92.0839653 219.88917206 92.0839653 218.87698364 93.10920715 C218.15182556 93.83345886 217.42666748 94.55771057 216.67953491 95.3039093 C215.53276276 96.46075729 215.53276276 96.46075729 214.36282349 97.64097595 C211.82983142 100.19298781 209.28933893 102.73736742 206.74789429 105.28096008 C204.98094068 107.05434109 203.2141378 108.82787229 201.44747925 110.60154724 C197.73868945 114.32232138 194.02581476 118.03897726 190.31039429 121.75312805 C186.50480567 125.55765081 182.70686405 129.3696169 178.91586304 133.18867493 C174.33201171 137.8059616 169.73836248 142.41326776 165.13710022 147.01320267 C163.38928948 148.76336538 161.64470195 150.51675341 159.90348816 152.27347946 C157.45809036 154.73860653 155.00017965 157.19058 152.53890991 159.6398468 C151.82994568 160.36005005 151.12098145 161.0802533 150.39053345 161.82228088 C144.00493755 168.12955879 136.63002438 174.31524764 127.29867554 174.69111633 C112.21388597 174.07704525 102.28672975 162.26664795 92.29891968 152.14472961 C90.37808142 150.19988397 88.4438156 148.26913968 86.50765991 146.33955383 C85.28094817 145.10727707 84.05500655 143.87423306 82.82992554 142.64033508 C82.25196732 142.06328827 81.67400909 141.48624146 81.07853699 140.89170837 C77.09164429 136.83243933 77.09164429 136.83243933 77.09164429 134.60127258 C76.22346069 134.2242218 76.22346069 134.2242218 75.33773804 133.83955383 C72.80880752 132.44534344 71.15733968 130.863369 69.15414429 128.78877258 C68.46062866 128.07721008 67.76711304 127.36564758 67.05258179 126.63252258 C66.40547241 125.96221008 65.75836304 125.29189758 65.09164429 124.60127258 C64.16351929 123.67314758 63.23539429 122.74502258 62.27914429 121.78877258 C61.55726929 121.06689758 60.83539429 120.34502258 60.09164429 119.60127258 C59.49351929 119.04439758 58.89539429 118.48752258 58.27914429 117.91377258 C57.09164429 116.60127258 57.09164429 116.60127258 57.09164429 114.60127258 C56.43164429 114.60127258 55.77164429 114.60127258 55.09164429 114.60127258 C52.46664429 112.22627258 52.46664429 112.22627258 50.09164429 109.60127258 C50.09164429 108.94127258 50.09164429 108.28127258 50.09164429 107.60127258 C49.43164429 107.60127258 48.77164429 107.60127258 48.09164429 107.60127258 C48.09164429 106.94127258 48.09164429 106.28127258 48.09164429 105.60127258 C47.43164429 105.60127258 46.77164429 105.60127258 46.09164429 105.60127258 C44.86097717 104.34812927 44.86097717 104.34812927 43.34823608 102.48457336 C38.23330057 96.47624062 32.59183302 91.00706928 26.99164772 85.45667648 C24.94988922 83.43248599 22.91184669 81.40461973 20.87477112 79.37571716 C15.08782613 73.61307832 9.29516469 67.85621081 3.49813843 62.10371399 C-0.06088629 58.57151826 -3.61498587 55.03442794 -7.16613197 51.49431229 C-8.51458995 50.15204291 -9.86493999 48.81167144 -11.2172451 47.47327805 C-13.10742363 45.60238827 -14.9912938 43.72535119 -16.87393188 41.84687805 C-17.42829926 41.30127228 -17.98266663 40.7556665 -18.55383301 40.19352722 C-24.02204756 34.71152032 -28.90835571 28.73335184 -28.90835571 20.58955383 C-28.49377333 16.05505906 -27.19876717 12.58459686 -24.90835571 8.60127258 C-24.24835571 8.60127258 -23.58835571 8.60127258 -22.90835571 8.60127258 C-22.57835571 7.61127258 -22.24835571 6.62127258 -21.90835571 5.60127258 C-15.05847719 0.58973052 -8.23647555 -0.11230746 0 0 Z " fill="#1BA96E" transform="translate(142.90835571289063,405.3987274169922)"/>
<path d="M0 0 C0.66 0.99 1.32 1.98 2 3 C1.01 2.67 0.02 2.34 -1 2 C-0.67 1.34 -0.34 0.68 0 0 Z " fill="#1FAB73" transform="translate(53,361)"/>
<path d="M0 0 C0.99 1.485 0.99 1.485 2 3 C1.01 3.495 1.01 3.495 0 4 C0 2.68 0 1.36 0 0 Z " fill="#2AB17E" transform="translate(52,126)"/>
<path d="M0 0 C4 1 4 1 4 1 Z " fill="#1FAB72" transform="translate(441,396)"/>
<path d="M0 0 C0.66 0.66 1.32 1.32 2 2 C1.01 2.495 1.01 2.495 0 3 C0 2.01 0 1.02 0 0 Z " fill="#20AC73" transform="translate(412,379)"/>
<path d="M0 0 C0.66 0 1.32 0 2 0 C1.67 0.99 1.34 1.98 1 3 C0.67 2.01 0.34 1.02 0 0 Z " fill="#26AE79" transform="translate(22,230)"/>
<path d="M0 0 C0.99 0.495 0.99 0.495 2 1 C1.67 1.66 1.34 2.32 1 3 C0.67 2.01 0.34 1.02 0 0 Z " fill="#2CB280" transform="translate(474,110)"/>
<path d="" fill="#22AD75" transform="translate(0,0)"/>
<path d="" fill="#27AF7B" transform="translate(0,0)"/>
<path d="M0 0 C0.99 0.495 0.99 0.495 2 1 C1.01 1.495 1.01 1.495 0 2 C0 1.34 0 0.68 0 0 Z " fill="#2BB17F" transform="translate(62,112)"/>
<path d="M0 0 C0.99 0.495 0.99 0.495 2 1 C1.01 1.495 1.01 1.495 0 2 C0 1.34 0 0.68 0 0 Z " fill="#2DB281" transform="translate(458,87)"/>
<path d="M0 0 C3 1 3 1 3 1 Z " fill="#2FB383" transform="translate(283,1)"/>
<path d="" fill="#1AA96D" transform="translate(0,0)"/>
<path d="M0 0 C2 1 2 1 2 1 Z " fill="#1CAA6F" transform="translate(132,455)"/>
<path d="" fill="#1EAB71" transform="translate(0,0)"/>
<path d="" fill="#20AC73" transform="translate(0,0)"/>
<path d="" fill="#1FAC73" transform="translate(0,0)"/>
<path d="" fill="#20AC73" transform="translate(0,0)"/>
<path d="" fill="#22AD76" transform="translate(0,0)"/>
<path d="" fill="#21AC74" transform="translate(0,0)"/>
<path d="" fill="#21AC74" transform="translate(0,0)"/>
<path d="" fill="#23AD77" transform="translate(0,0)"/>
<path d="" fill="#22AD76" transform="translate(0,0)"/>
<path d="" fill="#25AE79" transform="translate(0,0)"/>
<path d="" fill="#26AF7A" transform="translate(0,0)"/>
<path d="" fill="#26AF7A" transform="translate(0,0)"/>
<path d="M0 0 C2 1 2 1 2 1 Z " fill="#26AF79" transform="translate(276,245)"/>
<path d="" fill="#27AF7B" transform="translate(0,0)"/>
<path d="M0 0 C2 1 2 1 2 1 Z " fill="#2AB17E" transform="translate(505,174)"/>
<path d="" fill="#2CB280" transform="translate(0,0)"/>
<path d="" fill="#2BB17F" transform="translate(0,0)"/>
<path d="M0 0 C2 1 2 1 2 1 Z " fill="#2CB17F" transform="translate(69,102)"/>
<path d="M0 0 C2 1 2 1 2 1 Z " fill="#2FB383" transform="translate(367,22)"/>
<path d="M0 0 C2 1 2 1 2 1 Z " fill="#2FB383" transform="translate(346,14)"/>
<path d="M0 0 C2 1 2 1 2 1 Z " fill="#2FB383" transform="translate(330,9)"/>
<path d="M0 0 C2 1 2 1 2 1 Z " fill="#2FB383" transform="translate(215,7)"/>
<path d="M0 0 C2 1 2 1 2 1 Z " fill="#2FB383" transform="translate(328,6)"/>
<path d="M0 0 C2 1 2 1 2 1 Z " fill="#2FB383" transform="translate(253,1)"/>
<path d="" fill="#18A86B" transform="translate(0,0)"/>
<path d="" fill="#18A86B" transform="translate(0,0)"/>
<path d="" fill="#18A86B" transform="translate(0,0)"/>
<path d="" fill="#18A86B" transform="translate(0,0)"/>
<path d="" fill="#19A86C" transform="translate(0,0)"/>
<path d="" fill="#19A86C" transform="translate(0,0)"/>
<path d="" fill="#19A86C" transform="translate(0,0)"/>
<path d="" fill="#19A86C" transform="translate(0,0)"/>
<path d="" fill="#19A86C" transform="translate(0,0)"/>
<path d="" fill="#19A86C" transform="translate(0,0)"/>
<path d="" fill="#19A86C" transform="translate(0,0)"/>
<path d="" fill="#1AA96D" transform="translate(0,0)"/>
<path d="" fill="#1AA96D" transform="translate(0,0)"/>
<path d="" fill="#1AA96D" transform="translate(0,0)"/>
<path d="" fill="#1AA96D" transform="translate(0,0)"/>
<path d="" fill="#1AA96D" transform="translate(0,0)"/>
<path d="" fill="#1AA96D" transform="translate(0,0)"/>
<path d="" fill="#1AA96D" transform="translate(0,0)"/>
<path d="" fill="#1BA96E" transform="translate(0,0)"/>
<path d="" fill="#1BA96E" transform="translate(0,0)"/>
<path d="" fill="#1BA96E" transform="translate(0,0)"/>
<path d="" fill="#1BAA6F" transform="translate(0,0)"/>
<path d="" fill="#1BA96E" transform="translate(0,0)"/>
<path d="" fill="#1BA96E" transform="translate(0,0)"/>
<path d="" fill="#1BA96E" transform="translate(0,0)"/>
<path d="" fill="#1BAA6E" transform="translate(0,0)"/>
<path d="" fill="#1BAA6E" transform="translate(0,0)"/>
<path d="" fill="#1CAA6F" transform="translate(0,0)"/>
<path d="" fill="#1CAA6F" transform="translate(0,0)"/>
<path d="" fill="#1CAA6F" transform="translate(0,0)"/>
<path d="" fill="#1CAA6F" transform="translate(0,0)"/>
<path d="" fill="#1CAA6F" transform="translate(0,0)"/>
<path d="" fill="#1DAA70" transform="translate(0,0)"/>
<path d="" fill="#1EAB71" transform="translate(0,0)"/>
<path d="" fill="#1EAB71" transform="translate(0,0)"/>
<path d="" fill="#1DAB71" transform="translate(0,0)"/>
<path d="" fill="#1DAB71" transform="translate(0,0)"/>
<path d="" fill="#1EAB71" transform="translate(0,0)"/>
<path d="" fill="#1EAB72" transform="translate(0,0)"/>
<path d="" fill="#1EAB72" transform="translate(0,0)"/>
<path d="" fill="#1EAB72" transform="translate(0,0)"/>
<path d="" fill="#1EAB71" transform="translate(0,0)"/>
<path d="" fill="#1EAB71" transform="translate(0,0)"/>
<path d="" fill="#1EAB71" transform="translate(0,0)"/>
<path d="" fill="#1EAB71" transform="translate(0,0)"/>
<path d="" fill="#1EAB71" transform="translate(0,0)"/>
<path d="" fill="#1EAB71" transform="translate(0,0)"/>
<path d="" fill="#1EAB71" transform="translate(0,0)"/>
<path d="" fill="#1EAB71" transform="translate(0,0)"/>
<path d="" fill="#1EAB71" transform="translate(0,0)"/>
<path d="" fill="#1FAB72" transform="translate(0,0)"/>
<path d="" fill="#1EAB71" transform="translate(0,0)"/>
<path d="" fill="#1FAB72" transform="translate(0,0)"/>
<path d="" fill="#1FAB73" transform="translate(0,0)"/>
<path d="" fill="#1FAB73" transform="translate(0,0)"/>
<path d="" fill="#1EAB71" transform="translate(0,0)"/>
<path d="" fill="#20AC73" transform="translate(0,0)"/>
<path d="" fill="#1EAB72" transform="translate(0,0)"/>
<path d="" fill="#1EAB72" transform="translate(0,0)"/>
<path d="" fill="#1FAB72" transform="translate(0,0)"/>
<path d="" fill="#20AC73" transform="translate(0,0)"/>
<path d="" fill="#1FAB72" transform="translate(0,0)"/>
<path d="" fill="#1FAB72" transform="translate(0,0)"/>
<path d="" fill="#20AC73" transform="translate(0,0)"/>
<path d="" fill="#20AC74" transform="translate(0,0)"/>
<path d="" fill="#20AC74" transform="translate(0,0)"/>
<path d="" fill="#1FAB73" transform="translate(0,0)"/>
<path d="" fill="#21AC74" transform="translate(0,0)"/>
<path d="" fill="#1FAC73" transform="translate(0,0)"/>
<path d="" fill="#20AC74" transform="translate(0,0)"/>
<path d="" fill="#1FAB72" transform="translate(0,0)"/>
<path d="" fill="#20AC73" transform="translate(0,0)"/>
<path d="" fill="#20AC73" transform="translate(0,0)"/>
<path d="" fill="#21AC75" transform="translate(0,0)"/>
<path d="" fill="#21AC75" transform="translate(0,0)"/>
<path d="" fill="#21AC74" transform="translate(0,0)"/>
<path d="" fill="#20AC73" transform="translate(0,0)"/>
<path d="" fill="#21AC74" transform="translate(0,0)"/>
<path d="" fill="#22AD76" transform="translate(0,0)"/>
<path d="" fill="#21AC74" transform="translate(0,0)"/>
<path d="" fill="#21AC74" transform="translate(0,0)"/>
<path d="" fill="#22AD76" transform="translate(0,0)"/>
<path d="" fill="#22AD75" transform="translate(0,0)"/>
<path d="" fill="#21AC74" transform="translate(0,0)"/>
<path d="" fill="#21AC74" transform="translate(0,0)"/>
<path d="" fill="#21AD75" transform="translate(0,0)"/>
<path d="" fill="#22AD76" transform="translate(0,0)"/>
<path d="" fill="#23AD77" transform="translate(0,0)"/>
<path d="" fill="#23AD76" transform="translate(0,0)"/>
<path d="" fill="#22AD75" transform="translate(0,0)"/>
<path d="" fill="#23AD77" transform="translate(0,0)"/>
<path d="" fill="#22AD76" transform="translate(0,0)"/>
<path d="" fill="#22AD75" transform="translate(0,0)"/>
<path d="" fill="#23AD77" transform="translate(0,0)"/>
<path d="" fill="#22AD76" transform="translate(0,0)"/>
<path d="" fill="#24AE78" transform="translate(0,0)"/>
<path d="" fill="#25AE78" transform="translate(0,0)"/>
<path d="" fill="#24AE77" transform="translate(0,0)"/>
<path d="" fill="#23AD76" transform="translate(0,0)"/>
<path d="" fill="#25AE78" transform="translate(0,0)"/>
<path d="" fill="#25AE79" transform="translate(0,0)"/>
<path d="" fill="#24AE78" transform="translate(0,0)"/>
<path d="" fill="#24AE78" transform="translate(0,0)"/>
<path d="" fill="#24AE78" transform="translate(0,0)"/>
<path d="" fill="#24AE77" transform="translate(0,0)"/>
<path d="" fill="#25AE78" transform="translate(0,0)"/>
<path d="" fill="#25AE78" transform="translate(0,0)"/>
<path d="" fill="#24AE77" transform="translate(0,0)"/>
<path d="" fill="#24AE78" transform="translate(0,0)"/>
<path d="" fill="#25AE79" transform="translate(0,0)"/>
<path d="" fill="#25AE79" transform="translate(0,0)"/>
<path d="" fill="#25AE79" transform="translate(0,0)"/>
<path d="" fill="#26AF7A" transform="translate(0,0)"/>
<path d="" fill="#26AF79" transform="translate(0,0)"/>
<path d="" fill="#26AF79" transform="translate(0,0)"/>
<path d="" fill="#25AE79" transform="translate(0,0)"/>
<path d="" fill="#25AE79" transform="translate(0,0)"/>
<path d="" fill="#25AE79" transform="translate(0,0)"/>
<path d="" fill="#26AF79" transform="translate(0,0)"/>
<path d="" fill="#26AF7A" transform="translate(0,0)"/>
<path d="" fill="#28AF7B" transform="translate(0,0)"/>
<path d="" fill="#26AF7A" transform="translate(0,0)"/>
<path d="" fill="#28B07C" transform="translate(0,0)"/>
<path d="" fill="#28B07C" transform="translate(0,0)"/>
<path d="" fill="#29B07C" transform="translate(0,0)"/>
<path d="" fill="#29B07D" transform="translate(0,0)"/>
<path d="" fill="#28B07C" transform="translate(0,0)"/>
<path d="" fill="#29B07D" transform="translate(0,0)"/>
<path d="" fill="#28B07C" transform="translate(0,0)"/>
<path d="" fill="#2AB07D" transform="translate(0,0)"/>
<path d="" fill="#28B07C" transform="translate(0,0)"/>
<path d="" fill="#28B07C" transform="translate(0,0)"/>
<path d="" fill="#2AB17E" transform="translate(0,0)"/>
<path d="" fill="#29B07D" transform="translate(0,0)"/>
<path d="" fill="#29B07D" transform="translate(0,0)"/>
<path d="" fill="#29B07D" transform="translate(0,0)"/>
<path d="" fill="#2BB17E" transform="translate(0,0)"/>
<path d="" fill="#2BB17F" transform="translate(0,0)"/>
<path d="" fill="#2BB17F" transform="translate(0,0)"/>
<path d="" fill="#29B07D" transform="translate(0,0)"/>
<path d="" fill="#2AB07D" transform="translate(0,0)"/>
<path d="" fill="#2AB07E" transform="translate(0,0)"/>
<path d="" fill="#2AB17E" transform="translate(0,0)"/>
<path d="" fill="#2AB17E" transform="translate(0,0)"/>
<path d="" fill="#2AB17E" transform="translate(0,0)"/>
<path d="" fill="#2BB17F" transform="translate(0,0)"/>
<path d="" fill="#2BB17F" transform="translate(0,0)"/>
<path d="" fill="#2BB17E" transform="translate(0,0)"/>
<path d="" fill="#2CB180" transform="translate(0,0)"/>
<path d="" fill="#2BB17F" transform="translate(0,0)"/>
<path d="" fill="#2CB180" transform="translate(0,0)"/>
<path d="" fill="#2CB280" transform="translate(0,0)"/>
<path d="" fill="#2DB281" transform="translate(0,0)"/>
<path d="" fill="#2CB280" transform="translate(0,0)"/>
<path d="" fill="#2DB281" transform="translate(0,0)"/>
<path d="" fill="#2DB281" transform="translate(0,0)"/>
<path d="" fill="#2EB281" transform="translate(0,0)"/>
<path d="" fill="#2DB281" transform="translate(0,0)"/>
<path d="" fill="#2EB282" transform="translate(0,0)"/>
<path d="" fill="#2EB282" transform="translate(0,0)"/>
<path d="" fill="#2EB282" transform="translate(0,0)"/>
<path d="" fill="#2EB282" transform="translate(0,0)"/>
<path d="" fill="#2EB282" transform="translate(0,0)"/>
<path d="" fill="#2EB382" transform="translate(0,0)"/>
<path d="" fill="#2DB281" transform="translate(0,0)"/>
<path d="" fill="#2DB281" transform="translate(0,0)"/>
<path d="" fill="#2EB382" transform="translate(0,0)"/>
<path d="" fill="#2EB382" transform="translate(0,0)"/>
<path d="" fill="#2EB281" transform="translate(0,0)"/>
<path d="" fill="#2EB282" transform="translate(0,0)"/>
<path d="" fill="#2EB282" transform="translate(0,0)"/>
<path d="" fill="#2EB282" transform="translate(0,0)"/>
<path d="" fill="#2EB282" transform="translate(0,0)"/>
<path d="" fill="#2EB382" transform="translate(0,0)"/>
<path d="" fill="#2EB382" transform="translate(0,0)"/>
<path d="" fill="#2EB382" transform="translate(0,0)"/>
<path d="" fill="#2EB282" transform="translate(0,0)"/>
<path d="" fill="#2EB282" transform="translate(0,0)"/>
<path d="" fill="#2EB382" transform="translate(0,0)"/>
<path d="" fill="#2FB383" transform="translate(0,0)"/>
<path d="" fill="#2EB382" transform="translate(0,0)"/>
<path d="" fill="#2FB383" transform="translate(0,0)"/>
<path d="" fill="#2EB382" transform="translate(0,0)"/>
<path d="" fill="#2EB382" transform="translate(0,0)"/>
<path d="" fill="#2FB382" transform="translate(0,0)"/>
<path d="" fill="#2FB382" transform="translate(0,0)"/>
<path d="" fill="#2FB383" transform="translate(0,0)"/>
<path d="" fill="#2FB383" transform="translate(0,0)"/>
<path d="" fill="#2FB383" transform="translate(0,0)"/>
<path d="" fill="#2FB383" transform="translate(0,0)"/>
<path d="" fill="#2FB383" transform="translate(0,0)"/>
<path d="" fill="#2FB383" transform="translate(0,0)"/>
<path d="" fill="#2FB383" transform="translate(0,0)"/>
<path d="" fill="#2FB383" transform="translate(0,0)"/>
<path d="" fill="#2FB383" transform="translate(0,0)"/>
<path d="" fill="#2FB383" transform="translate(0,0)"/>
<path d="" fill="#2FB383" transform="translate(0,0)"/>
<path d="" fill="#2FB383" transform="translate(0,0)"/>
<path d="" fill="#2FB383" transform="translate(0,0)"/>
</svg>
